{
    "asset" : {
        "generator" : "Khronos glTF Blender I/O v1.6.16",
        "version" : "2.0"
    },
    "scene" : 0,
    "scenes" : [
        {
            "name" : "Scene",
            "nodes" : [
                0
            ]
        }
    ],
    "nodes" : [
        {
            "mesh" : 0,
            "name" : "Cylinder",
            "rotation" : [
                0.7070555686950684,
                0,
                0,
                0.7071579694747925
            ],
            "scale" : [
                0.03999999910593033,
                0.10000000149011612,
                0.03999999910593033
            ]
        }
    ],
    "materials" : [
        {
            "doubleSided" : true,
            "name" : "b0b0b0",
            "pbrMetallicRoughness" : {
                "baseColorFactor" : [
                    0.6901960968971252,
                    0.6901960968971252,
                    0.6901960968971252,
                    1
                ],
                "metallicFactor" : 0,
                "roughnessFactor" : 0.5
            }
        }
    ],
    "meshes" : [
        {
            "name" : "Cylinder",
            "primitives" : [
                {
                    "attributes" : {
                        "POSITION" : 0,
                        "NORMAL" : 1,
                        "TEXCOORD_0" : 2
                    },
                    "indices" : 3,
                    "material" : 0
                }
            ]
        }
    ],
    "accessors" : [
        {
            "bufferView" : 0,
            "componentType" : 5126,
            "count" : 818,
            "max" : [
                1.197367548942566,
                0.07990643382072449,
                1.197367548942566
            ],
            "min" : [
                -1.197367548942566,
                -0.07990643382072449,
                -1.197367548942566
            ],
            "type" : "VEC3"
        },
        {
            "bufferView" : 1,
            "componentType" : 5126,
            "count" : 818,
            "type" : "VEC3"
        },
        {
            "bufferView" : 2,
            "componentType" : 5126,
            "count" : 818,
            "type" : "VEC2"
        },
        {
            "bufferView" : 3,
            "componentType" : 5123,
            "count" : 4896,
            "type" : "SCALAR"
        }
    ],
    "bufferViews" : [
        {
            "buffer" : 0,
            "byteLength" : 9816,
            "byteOffset" : 0
        },
        {
            "buffer" : 0,
            "byteLength" : 9816,
            "byteOffset" : 9816
        },
        {
            "buffer" : 0,
            "byteLength" : 6544,
            "byteOffset" : 19632
        },
        {
            "buffer" : 0,
            "byteLength" : 9792,
            "byteOffset" : 26176
        }
    ],
    "buffers" : [
        {
            "byteLength" : 35968,
            "uri" : "data:application/octet-stream;base64,"
        }
    ]
}
